<svg xmlns="http://www.w3.org/2000/svg" xmlns:xlink="http://www.w3.org/1999/xlink" width="30" height="30" viewBox="0 0 30 30">
  <defs>
    <clipPath id="clip-Пользовательский_размер_1">
      <rect width="30" height="30"/>
    </clipPath>
  </defs>
  <g id="Пользовательский_размер_1" data-name="Пользовательский размер – 1" clip-path="url(#clip-Пользовательский_размер_1)">
    <rect width="30" height="30" fill="#fff"/>
    <path id="Icon_open-account-login" data-name="Icon open-account-login" d="M8.115-.324c-3.83.766-3.064,2.3,0,3.064s9.192-3.83,12.256,0,3.064,11.49,0,15.321-9.192-.766-12.256,0-3.83,2.3,0,3.064,11.49,5.362,15.321,0,3.83-16.087,0-21.449S11.946-1.09,8.115-.324ZM11.18,5.8c-1.532-.383,0,3.064,0,3.064s-9.192-.766-12.256,0-3.064,2.3,0,3.064,12.256,0,12.256,0-1.532,3.447,0,3.064,8.1-2.193,8.1-4.491S12.712,6.187,11.18,5.8Z" transform="translate(3.691 4.6)"/>
  </g>
</svg>
